<?xml version="1.0" encoding="utf-8"?>
<!-- Generator: Adobe Illustrator 18.1.1, SVG Export Plug-In . SVG Version: 6.00 Build 0)  -->
<!DOCTYPE svg PUBLIC "-//W3C//DTD SVG 1.1//EN" "http://www.w3.org/Graphics/SVG/1.1/DTD/svg11.dtd">
<svg version="1.1" id="Layer_1" xmlns="http://www.w3.org/2000/svg" xmlns:xlink="http://www.w3.org/1999/xlink" x="0px" y="0px"
	 width="431.3px" height="59px" viewBox="0 0 431.3 59" style="enable-background:new 0 0 431.3 59;" xml:space="preserve">
<g>
	<g>
		<path style="fill:#555C5E;" d="M4,2.8c2.2,0,4,1.8,4,4c0,2.2-1.8,4-4,4c-2.2,0-4-1.8-4-4C0,4.6,1.8,2.8,4,2.8z M1.3,16.9h5.4v28.4
			H1.3V16.9z"/>
		<path style="fill:#555C5E;" d="M15.2,16.9h5.4v4.4h0.1c1.4-3,5-5.1,9.4-5.1c5.5,0,10.3,3.3,10.3,10.9v18.3H35V28.6
			c0-5.3-3.1-7.3-6.5-7.3c-4.5,0-7.9,2.9-7.9,9.5v14.6h-5.4V16.9z"/>
		<path style="fill:#555C5E;" d="M77.1,59h-5.4V41.3h-0.1c-1.9,2.9-5.8,4.8-9.9,4.8c-8.8,0-14.5-6.4-14.5-14.9
			c0-8.4,5.6-14.9,14.5-14.9c3.8,0,7.8,1.7,9.9,4.8h0.1v-4.1h5.4V59z M53,31.1c0,5.8,3.6,9.9,9.4,9.9c5.8,0,9.4-4.1,9.4-9.9
			c0-5.8-3.6-9.9-9.4-9.9C56.6,21.2,53,25.4,53,31.1z"/>
		<path style="fill:#555C5E;" d="M110.5,45.4h-5.4V41h-0.1c-1.4,3-5,5.1-9.4,5.1c-5.5,0-10.3-3.3-10.3-10.9V16.9h5.4v16.8
			c0,5.3,3.1,7.3,6.5,7.3c4.5,0,7.9-2.9,7.9-9.5V16.9h5.4V45.4z"/>
		<path style="fill:#555C5E;" d="M121.7,2.8c2.2,0,4,1.8,4,4c0,2.2-1.8,4-4,4c-2.2,0-4-1.8-4-4C117.8,4.6,119.6,2.8,121.7,2.8z
			 M119,16.9h5.4v28.4H119V16.9z"/>
		<path style="fill:#555C5E;" d="M133,16.9h5.4v4.4h0.1c1.4-3,5-5.1,8.5-5.1c0.8,0,1.7,0.1,2.4,0.4l-0.2,5.8
			c-0.9-0.2-1.8-0.4-2.6-0.4c-5.3,0-8.2,2.9-8.2,9.1v14.3H133V16.9z"/>
		<path style="fill:#555C5E;" d="M158.2,33.1c0,5,4.6,8.3,9.6,8.3c3.3,0,5.7-1.7,7.8-4.3l4.1,3.1c-3,3.9-7.1,5.8-12.6,5.8
			c-9,0-14.6-6.5-14.6-14.9c0-8.5,6.2-14.9,14.7-14.9c10,0,13.9,7.7,13.9,15v1.9H158.2z M175.3,28.8c-0.1-4.7-2.8-8.3-8.2-8.3
			c-5.3,0-8.8,4.5-8.8,8.3H175.3z"/>
		<path style="fill:#990000;" d="M187.5,0h5.4v21.3h0.1c1.4-3,5-5.1,9.4-5.1c5.5,0,10.3,3.3,10.3,10.9v18.3h-5.4V28.6
			c0-5.3-3.1-7.3-6.5-7.3c-4.5,0-7.9,2.9-7.9,9.5v14.6h-5.4V0z"/>
		<path style="fill:#990000;" d="M224,2.8c2.2,0,4,1.8,4,4c0,2.2-1.8,4-4,4c-2.2,0-4-1.8-4-4C220,4.6,221.8,2.8,224,2.8z
			 M221.3,16.9h5.4v28.4h-5.4V16.9z"/>
		<path style="fill:#990000;" d="M235.3,16.9h5.4v4.4h0.1c1.4-3,5-5.1,8.5-5.1c0.8,0,1.7,0.1,2.4,0.4l-0.2,5.8
			c-0.9-0.2-1.8-0.4-2.6-0.4c-5.3,0-8.2,2.9-8.2,9.1v14.3h-5.4V16.9z"/>
		<path style="fill:#990000;" d="M264.4,38.6c3.5,3.5,9.1,2.6,12.6-0.9c2.3-2.3,2.8-5.2,2.5-8.5l5.1-0.7c0.6,4.9-0.9,9.2-4.8,13
			c-6.4,6.4-14.9,5.8-20.9-0.2c-6-6-6.2-14.9-0.2-21c7.1-7.1,15.2-4.4,20.4,0.8l1.4,1.4L264.4,38.6z M273.3,23.5
			c-3.4-3.3-7.8-3.9-11.7,0c-3.8,3.8-3.1,9.4-0.4,12.1L273.3,23.5z"/>
	</g>
	<g>
		<path style="fill:#999999;enable-background:new    ;" d="M293.4,27.2h2.5v16.1h8.5v2.3h-10.9V27.2z"/>
		<path style="fill:#999999;enable-background:new    ;" d="M312.2,33c3.7,0,6.6,2.9,6.6,6.5s-2.9,6.5-6.6,6.5
			c-3.7,0-6.6-2.9-6.6-6.5S308.6,33,312.2,33z M312.2,43.8c2.5,0,4.1-1.8,4.1-4.3s-1.6-4.3-4.1-4.3c-2.5,0-4.1,1.8-4.1,4.3
			S309.7,43.8,312.2,43.8z"/>
		<path style="fill:#999999;enable-background:new    ;" d="M327.7,33c3.7,0,6.6,2.9,6.6,6.5s-2.9,6.5-6.6,6.5
			c-3.7,0-6.6-2.9-6.6-6.5S324,33,327.7,33z M327.7,43.8c2.5,0,4.1-1.8,4.1-4.3s-1.6-4.3-4.1-4.3s-4.1,1.8-4.1,4.3
			S325.2,43.8,327.7,43.8z"/>
		<path style="fill:#999999;enable-background:new    ;" d="M337.2,26h2.3v12.7l5.3-5.3h3.2l-5.7,5.6l6.2,6.7h-3.3l-5.7-6.4v6.4
			h-2.3V26z"/>
		<path style="fill:#999999;enable-background:new    ;" d="M361.1,27.2h6.4c3.2,0,5.4,1.5,4.9,4.6c-0.3,2.1-1.8,3.4-3.7,4.1l0,0.1
			c2.2,0.2,3.7,2.1,3.4,4.6c-0.5,3.3-3.6,5.1-7.2,5.1h-6.3L361.1,27.2z M361.3,43.5h3.7c1.5,0,4.1-0.5,4.4-3.1
			c0.3-2.2-1.1-3.3-3.5-3.3h-3.7L361.3,43.5z M362.5,34.9h3.4c1.9,0,3.5-0.8,3.8-2.8c0.2-1.5-0.5-2.7-2.5-2.7h-3.9L362.5,34.9z"/>
		<path style="fill:#999999;enable-background:new    ;" d="M376.8,40.4c-0.3,2.2,1.5,3.6,3.6,3.6c1.4,0,2.6-0.7,3.6-1.8l1.6,1.4
			c-1.5,1.7-3.5,2.5-5.8,2.5c-3.9,0-6-2.8-5.4-6.5c0.5-3.7,3.6-6.5,7.3-6.5c4.3,0,5.5,3.3,5.1,6.5l-0.1,0.8H376.8z M384.4,38.5
			c0.2-2.1-0.7-3.6-3.1-3.6c-2.3,0-4.1,2-4.3,3.6H384.4z"/>
		<path style="fill:#999999;enable-background:new    ;" d="M396.8,35.4h-3.4l-0.8,5.6c-0.2,1.4-0.4,2.8,1.4,2.8
			c0.5,0,1.2-0.1,1.7-0.4l-0.3,2.1c-0.6,0.3-1.7,0.4-2.2,0.4c-3.6,0-3.4-2.2-3.1-4.2l0.9-6.4h-2.7l0.3-2h2.7l0.5-3.5h2.3l-0.5,3.5
			h3.4L396.8,35.4z"/>
		<path style="fill:#999999;enable-background:new    ;" d="M406.4,35.4H403l-0.8,5.6c-0.2,1.4-0.4,2.8,1.4,2.8
			c0.5,0,1.2-0.1,1.7-0.4l-0.3,2.1c-0.6,0.3-1.7,0.4-2.2,0.4c-3.6,0-3.4-2.2-3.1-4.2l0.9-6.4H398l0.3-2h2.7l0.5-3.5h2.3l-0.5,3.5
			h3.4L406.4,35.4z"/>
		<path style="fill:#999999;enable-background:new    ;" d="M410.5,40.4c-0.3,2.2,1.5,3.6,3.6,3.6c1.4,0,2.6-0.7,3.6-1.8l1.6,1.4
			c-1.5,1.7-3.5,2.5-5.8,2.5c-3.9,0-6-2.8-5.4-6.5c0.5-3.7,3.6-6.5,7.3-6.5c4.3,0,5.5,3.3,5.1,6.5l-0.1,0.8H410.5z M418.1,38.5
			c0.2-2.1-0.7-3.6-3.1-3.6c-2.3,0-4.1,2-4.3,3.6H418.1z"/>
		<path style="fill:#999999;enable-background:new    ;" d="M424.2,33.3h2.3l-0.3,1.9h0.1c0.8-1.3,2.5-2.2,4-2.2
			c0.4,0,0.7,0.1,1,0.2l-0.4,2.5c-0.4-0.1-0.8-0.2-1.1-0.2c-2.3,0-3.7,1.2-4.1,4l-0.9,6.2h-2.3L424.2,33.3z"/>
	</g>
</g>
</svg>
